<?xml version="1.0" encoding="UTF-8"?>
<!DOCTYPE svg PUBLIC "-//W3C//DTD SVG 1.1//EN" "http://www.w3.org/Graphics/SVG/1.1/DTD/svg11.dtd">
<!-- Creator: CorelDRAW -->
<svg xmlns="http://www.w3.org/2000/svg" xml:space="preserve" width="150mm" height="150mm" version="1.1" style="shape-rendering:geometricPrecision; text-rendering:geometricPrecision; image-rendering:optimizeQuality; fill-rule:evenodd; clip-rule:evenodd"
viewBox="0 0 7106.86 7106.86"
 xmlns:xlink="http://www.w3.org/1999/xlink"
 xmlns:xodm="http://www.corel.com/coreldraw/odm/2003">
 <defs>
  <style type="text/css">
   <![CDATA[
    .fil0 {fill:#004F71}
    .fil1 {fill:white}
   ]]>
  </style>
 </defs>
 <g id="Layer_x0020_1">
  <metadata id="CorelCorpID_0Corel-Layer"/>
  <path class="fil0" d="M1788.92 0l3529.03 0c983.91,0 1788.92,805.01 1788.92,1788.92l0 3529.03c0,983.91 -805.01,1788.92 -1788.92,1788.92l-3529.03 0c-983.91,0 -1788.92,-805.01 -1788.92,-1788.92l0 -3529.03c0,-983.91 805.01,-1788.92 1788.92,-1788.92z"/>
  <path class="fil1" d="M2098.77 5120.02c-301.85,-109.16 -438.77,-363.93 -438.77,-876.72l0 -1302.33c0,-211.09 -9.62,-534.24 135.17,-704.51 173.51,-204.04 559.71,-276.59 802.8,-276.59l1927.24 0c732.54,0 904.25,117.1 928.22,872.22l472.44 0c-19.52,-951.78 -266.56,-1314.65 -1383.57,-1314.65l-1927.24 0c-1222.49,0 -1469.88,595.96 -1469.88,1423.53l0 1302.33c0,854.81 358.71,1240.1 953.6,1351.28l0 -474.56zm2964.7 -3878.07l0 -409.77 -2910.51 0 0 664.79c154.87,-25.35 312.68,-33.71 462.08,-33.71l0 -221.3 2448.42 0zm-2910.51 851.08l0 4181.66 462.08 0 0 -2587.55 2033.18 0 0 -416.68 -2033.18 0 0 -1247.14c-138.39,0 -300.52,17.45 -462.08,69.7zm516.28 3537.27l1861.08 0c773.32,0 1445.74,-182.52 1431.14,-942.94l-8.81 -459.06 -454.92 0 0.45 14.13c26.79,844.75 -256.44,946.72 -967.86,946.72l-1861.08 0 0 441.15z"/>
 </g>
</svg>
