<?xml version="1.0" encoding="UTF-8"?>
<!DOCTYPE svg PUBLIC "-//W3C//DTD SVG 1.1//EN" "http://www.w3.org/Graphics/SVG/1.1/DTD/svg11.dtd">
<!-- Creator: CorelDRAW -->
<svg xmlns="http://www.w3.org/2000/svg" xml:space="preserve" width="107.217mm" height="85.0114mm" version="1.1" style="shape-rendering:geometricPrecision; text-rendering:geometricPrecision; image-rendering:optimizeQuality; fill-rule:evenodd; clip-rule:evenodd"
viewBox="0 0 21391.88 16961.4"
 xmlns:xlink="http://www.w3.org/1999/xlink"
 xmlns:xodm="http://www.corel.com/coreldraw/odm/2003">
 <defs>
  <style type="text/css">
   <![CDATA[
    .fil0 {fill:#004F71;fill-rule:nonzero}
   ]]>
  </style>
 </defs>
 <g id="Layer_x0020_1">
  <metadata id="CorelCorpID_0Corel-Layer"/>
  <path class="fil0" d="M1837.87 12427.59l0 -428.69 -1837.87 0 0 3383.86 437.8 0 0 -1518.64 1208.53 0 0 -428.69 -1208.53 0 0 -1007.85 1400.07 0zm11637.89 -11673.29l0 -754.3 -5357.71 0 0 1223.75c285.09,-46.67 575.59,-62.07 850.61,-62.07l0 -407.38 4507.1 0zm-5357.71 1566.68l0 7697.67 850.61 0 0 -4763.2 3742.72 0 0 -767.03 -3742.72 0 0 -2295.75c-254.67,0 -553.15,32.1 -850.61,128.31zm-99.76 5572.13c-555.66,-200.94 -807.69,-669.93 -807.69,-1613.87l0 -2397.34c0,-388.58 -17.72,-983.43 248.82,-1296.87 319.39,-375.59 1030.32,-509.15 1477.8,-509.15l3547.69 0c1348.13,0 1664.63,215.34 1708.68,1605.59l869.66 0c-34.82,-1753.43 -493.41,-2420.03 -2546.9,-2420.03l-3547.69 0c-2250.38,0 -2705.78,1097.06 -2705.78,2620.46l0 2397.34c0,1573.55 660.31,2282.8 1755.41,2487.45l0 -873.57zm1050.13 939.32l3425.9 0c1423.53,0 2661.35,-335.99 2634.47,-1735.78l-16.22 -845.04 -837.42 0c49.34,1569.26 -449.66,1768.76 -1780.83,1768.76l-3425.9 0 0 812.06zm-6530.6 7275.73l-79.93 61.35c-248.7,-324.46 -803.02,-176.28 -803.02,260.47 0,422.66 528.03,586.73 803.02,267.06l79.93 60.63c-282.4,358.68 -990.15,240.26 -990.15,-335.91 0,-546.08 711.9,-696.7 990.15,-313.6zm1552.76 -212.27c505.92,0 707.24,586.29 385.29,908.57 -328.53,328.87 -911.86,106.9 -911.86,-372.36 0,-296.68 229.77,-536.21 526.57,-536.21zm4.47 98.72c-380.74,0 -571.82,473.38 -301.61,741.67 263.31,261.45 732.49,91.12 732.49,-309.35 0,-249.16 -197.78,-432.32 -430.88,-432.32zm1606.83 939.38l0 -1012.72 21.87 0 673.5 774.59 0 -774.59 101.56 0 0 1012.72 -23.04 0 -669.51 -767.77 0 767.77 -104.37 0zm1804.29 -189.46l86.03 -51.74c183.38,338.34 500.73,91 363.2,-103.89 -124.26,-176.1 -385.77,-238.29 -385.77,-455.82 0,-208.16 287.67,-378.23 513.4,-71.47l-82.74 62.77c-189.12,-249.5 -376.39,-75.68 -312.41,68.65 61.53,138.81 412.09,244.79 412.09,493.65 0,252.13 -385.45,438.62 -593.81,57.84zm1677.82 -823.26l101.56 0 4.23 747.32c34.58,246.07 389.12,264.9 453.71,22.81l10.34 -770.12 101.56 0c0,176.49 17.3,692.03 -26.56,830.54 -90.04,284.45 -539.84,272 -626.25,-5.89 -30.79,-98.98 -18.58,-684.39 -18.58,-824.65zm1786.2 0l101.56 0 0 913.98 390.7 0 0 98.74 -492.25 0 0 -1012.72zm1418.06 98.74l0 -98.74 554.3 0 0 98.74 -225.66 0 0 913.98 -102.97 0 0 -913.98 -225.68 0zm2050.42 -124.12c505.92,0 707.24,586.29 385.29,908.57 -328.53,328.87 -911.86,106.9 -911.86,-372.36 0,-296.68 229.77,-536.21 526.57,-536.21zm4.47 98.72c-380.74,0 -571.82,473.38 -301.61,741.67 263.31,261.45 732.49,91.12 732.49,-309.35 0,-249.16 -197.78,-432.32 -430.88,-432.32zm1611.06 -73.34c257.44,0 634.71,-54.17 634.71,269.17 0,205.72 -159.44,271.39 -350.5,272.46l364.6 471.08 -124.36 0 -364.6 -471.08 -58.3 0 0 471.08 -101.56 0 0 -1012.72zm101.56 98.74l0 344.15c165.3,1.34 428.79,39.9 428.79,-174.2 0,-208.82 -259.16,-169.95 -428.79,-169.95zm1601.66 -98.74l101.56 0 0 1012.72 -101.56 0 0 -1012.72zm1614.37 0l472.5 1012.72 -108.84 0 -158.2 -332.88 -438.9 0 -157.26 332.88 -112.83 0 478.15 -1012.72 25.38 0zm-12.69 212.53l-174.2 368.59 347.68 0 -173.48 -368.59zm-15054.72 -751.03l-1099.09 -3383.86 -433.24 0 -1026.11 3383.86 474.28 0 282.76 -998.73 998.75 0 300.99 998.73 501.65 0zm-944.02 -1427.42l-725.11 0c129.21,-424.56 264.72,-831 355.7,-1267.82 109.94,433.6 245.47,840.25 369.41,1267.82zm3962.33 1427.42c-158.98,-315 -489.32,-1010.52 -672.68,-1279.22 -65.36,-95.77 -146.71,-183.18 -243.99,-262.23 883.51,-239.78 744.09,-1309.82 387.65,-1639.49 -196.61,-181.84 -429.33,-202.93 -688.64,-202.93l-1185.72 0 0 3383.86 437.8 0 0 -1486.72c555.74,0 571.78,-55.51 893.87,490.26l533.57 996.46 538.14 0zm-688.64 -2448.98c0,386.77 -215.68,538.14 -588.3,538.14l-684.07 0 0 -1062.6 766.15 0c337.91,0 506.22,192.9 506.22,524.46zm3789.03 2448.98l-1099.09 -3383.86 -433.24 0 -1026.11 3383.86 474.28 0 282.76 -998.73 998.75 0 300.99 998.73 501.65 0zm-944.02 -1427.42l-725.11 0c129.21,-424.56 264.72,-831 355.7,-1267.82 109.94,433.6 245.47,840.25 369.41,1267.82zm4121.95 1427.42l0 -3383.86 -547.26 0 -720.56 2567.55 -453.77 -1662.31 -239.42 -905.24 -601.99 0 0 3383.86 437.8 0 0 -2394.25 643.03 2394.25 405.88 0 629.36 -2307.6 0 2307.6 446.92 0zm1166.75 0l0 -3383.86 -437.8 0 0 3383.86 437.8 0zm2457.36 0l0 -428.67 -1272.37 0 0 -2955.2 -437.8 0 0 3383.86 1710.18 0zm947.84 0l0 -3383.86 -437.8 0 0 3383.86 437.8 0zm3218.96 -1687.37c0,-777.23 -342.89,-1755.79 -1281.49,-1755.79 -1170.22,0 -1421.51,1474.37 -1210.82,2371.46 139.94,595.86 534.15,1126.43 1206.25,1126.43 931.75,0 1286.06,-965.33 1286.06,-1742.1zm-446.92 4.57c0,529.18 -174.22,1317.98 -839.14,1317.98 -637.88,0 -834.57,-753.62 -834.57,-1272.39 0,-484.13 54.09,-1032.89 513.06,-1295.18 214.76,-122.72 532.26,-110.49 727.39,45.61 336.07,268.87 433.26,796.38 433.26,1203.98z"/>
 </g>
</svg>
